<svg width="40" height="40" viewBox="0 0 64 64" xmlns="http://www.w3.org/2000/svg">
  <rect width="64" height="64" fill="white"/>
  <g transform="translate(10, 10)">
    <path d="M22 0c2 6-6 7-6 11s9 4 9 9-11 6-11 6 2-3 0-5c-3-4-7-4-7-8s6-6 6-6c-2 2 0 5 3 6s4-2 4-5z" fill="#5382A1"/>
    <path d="M12 40c-3-1-8-2-8-4s6-4 14-4 14 2 14 4-5 3-8 4-3 1-6 1-4 0-6-1z" fill="#E76F00"/>
    <path d="M32 22c0 5-9 9-20 9s-20-4-20-9 9-9 20-9 20 4 20 9z" fill="none" stroke="#5382A1" stroke-width="2"/>
    <text x="5" y="45" font-size="10" font-family="Arial" fill="#5382A1">Java</text>
  </g>
</svg>
